<svg width="79" height="19" viewBox="0 0 79 19" fill="none" xmlns="http://www.w3.org/2000/svg">
<path d="M0.56 18V6.096H3.296L3.584 8.328C4.016 7.56 4.6 6.952 5.336 6.504C6.088 6.04 6.968 5.808 7.976 5.808V9.048H7.112C6.44 9.048 5.84 9.152 5.312 9.36C4.784 9.568 4.368 9.928 4.064 10.44C3.776 10.952 3.632 11.664 3.632 12.576V18H0.56ZM14.8567 18.288C13.7047 18.288 12.6647 18.024 11.7367 17.496C10.8247 16.968 10.0967 16.24 9.55269 15.312C9.02469 14.368 8.76069 13.28 8.76069 12.048C8.76069 10.816 9.03269 9.736 9.57669 8.808C10.1207 7.864 10.8487 7.128 11.7607 6.6C12.6887 6.072 13.7287 5.808 14.8807 5.808C16.0167 5.808 17.0407 6.072 17.9527 6.6C18.8807 7.128 19.6087 7.864 20.1367 8.808C20.6807 9.736 20.9527 10.816 20.9527 12.048C20.9527 13.28 20.6807 14.368 20.1367 15.312C19.6087 16.24 18.8807 16.968 17.9527 17.496C17.0247 18.024 15.9927 18.288 14.8567 18.288ZM14.8567 15.624C15.6567 15.624 16.3527 15.328 16.9447 14.736C17.5367 14.128 17.8327 13.232 17.8327 12.048C17.8327 10.864 17.5367 9.976 16.9447 9.384C16.3527 8.776 15.6647 8.472 14.8807 8.472C14.0647 8.472 13.3607 8.776 12.7687 9.384C12.1927 9.976 11.9047 10.864 11.9047 12.048C11.9047 13.232 12.1927 14.128 12.7687 14.736C13.3607 15.328 14.0567 15.624 14.8567 15.624ZM22.9794 18V6.096H25.6914L25.9314 8.112C26.2994 7.408 26.8274 6.848 27.5154 6.432C28.2194 6.016 29.0434 5.808 29.9874 5.808C31.4594 5.808 32.6034 6.272 33.4194 7.2C34.2354 8.128 34.6434 9.488 34.6434 11.28V18H31.5714V11.568C31.5714 10.544 31.3634 9.76 30.9474 9.216C30.5314 8.672 29.8834 8.4 29.0034 8.4C28.1394 8.4 27.4274 8.704 26.8674 9.312C26.3234 9.92 26.0514 10.768 26.0514 11.856V18H22.9794ZM42.6449 18.288C41.4449 18.288 40.3809 18.032 39.4529 17.52C38.5249 17.008 37.7969 16.288 37.2689 15.36C36.7409 14.432 36.4769 13.36 36.4769 12.144C36.4769 10.912 36.7329 9.816 37.2449 8.856C37.7729 7.896 38.4929 7.152 39.4049 6.624C40.3329 6.08 41.4209 5.808 42.6689 5.808C43.8369 5.808 44.8689 6.064 45.7649 6.576C46.6609 7.088 47.3569 7.792 47.8529 8.688C48.3649 9.568 48.6209 10.552 48.6209 11.64C48.6209 11.816 48.6129 12 48.5969 12.192C48.5969 12.384 48.5889 12.584 48.5729 12.792H39.5249C39.5889 13.72 39.9089 14.448 40.4849 14.976C41.0769 15.504 41.7889 15.768 42.6209 15.768C43.2449 15.768 43.7649 15.632 44.1809 15.36C44.6129 15.072 44.9329 14.704 45.1409 14.256H48.2609C48.0369 15.008 47.6609 15.696 47.1329 16.32C46.6209 16.928 45.9809 17.408 45.2129 17.76C44.4609 18.112 43.6049 18.288 42.6449 18.288ZM42.6689 8.304C41.9169 8.304 41.2529 8.52 40.6769 8.952C40.1009 9.368 39.7329 10.008 39.5729 10.872H45.5009C45.4529 10.088 45.1649 9.464 44.6369 9C44.1089 8.536 43.4529 8.304 42.6689 8.304ZM52.1407 4.248C51.5807 4.248 51.1167 4.08 50.7487 3.744C50.3967 3.408 50.2207 2.984 50.2207 2.472C50.2207 1.96 50.3967 1.544 50.7487 1.224C51.1167 0.887999 51.5807 0.719999 52.1407 0.719999C52.7007 0.719999 53.1567 0.887999 53.5087 1.224C53.8767 1.544 54.0607 1.96 54.0607 2.472C54.0607 2.984 53.8767 3.408 53.5087 3.744C53.1567 4.08 52.7007 4.248 52.1407 4.248ZM50.6047 18V6.096H53.6767V18H50.6047ZM56.1631 18V0.719999H59.2351V18H56.1631ZM61.6541 18V0.719999H64.7261V18H61.6541ZM71.249 18.288C70.225 18.288 69.385 18.128 68.729 17.808C68.073 17.472 67.585 17.032 67.265 16.488C66.945 15.944 66.785 15.344 66.785 14.688C66.785 13.584 67.217 12.688 68.081 12C68.945 11.312 70.241 10.968 71.969 10.968H74.993V10.68C74.993 9.864 74.761 9.264 74.297 8.88C73.833 8.496 73.257 8.304 72.569 8.304C71.945 8.304 71.401 8.456 70.937 8.76C70.473 9.048 70.185 9.48 70.073 10.056H67.073C67.153 9.192 67.441 8.44 67.937 7.8C68.449 7.16 69.105 6.672 69.905 6.336C70.705 5.984 71.601 5.808 72.593 5.808C74.289 5.808 75.625 6.232 76.601 7.08C77.577 7.928 78.065 9.128 78.065 10.68V18H75.449L75.161 16.08C74.809 16.72 74.313 17.248 73.673 17.664C73.049 18.08 72.241 18.288 71.249 18.288ZM71.945 15.888C72.825 15.888 73.505 15.6 73.985 15.024C74.481 14.448 74.793 13.736 74.921 12.888H72.305C71.489 12.888 70.905 13.04 70.553 13.344C70.201 13.632 70.025 13.992 70.025 14.424C70.025 14.888 70.201 15.248 70.553 15.504C70.905 15.76 71.369 15.888 71.945 15.888Z" fill="#FAFAFA"/>
</svg>
