<svg width="387" height="176" viewBox="0 0 387 176" fill="none" xmlns="http://www.w3.org/2000/svg">
<path fill-rule="evenodd" clip-rule="evenodd" d="M327.572 144.955C362.108 129.267 380.696 108.78 380.696 88.2469C380.696 67.7137 362.108 47.2271 327.572 31.5392C293.56 16.0898 246.167 6.38245 193.507 6.38245C140.847 6.38245 93.4533 16.0898 59.4417 31.5392C24.9053 47.2271 6.31732 67.7137 6.31732 88.2469C6.31732 108.78 24.9053 129.267 59.4417 144.955C93.4533 160.404 140.847 170.111 193.507 170.111C246.167 170.111 293.56 160.404 327.572 144.955ZM193.507 175.91C300.091 175.91 386.495 136.662 386.495 88.2469C386.495 39.8318 300.091 0.583679 193.507 0.583679C86.9224 0.583679 0.518555 39.8318 0.518555 88.2469C0.518555 136.662 86.9224 175.91 193.507 175.91Z" fill="#111111"/>
<path d="M195.356 34.5003L199.058 79.309L233.36 50.2424L204.294 84.5448L249.102 88.247L204.294 91.9493L233.36 126.252L199.058 97.185L195.356 141.994L191.653 97.185L157.351 126.252L186.418 91.9493L141.609 88.247L186.418 84.5448L157.351 50.2424L191.653 79.309L195.356 34.5003Z" fill="#ECB72D"/>
<path d="M130.103 115.326L125.093 99.2217C123.542 94.0922 121.991 91.7064 118.293 90.8714C124.735 87.6505 130.819 80.8509 130.819 70.8305C130.819 53.4141 117.339 49.4775 105.768 49.4775H81.0747C83.6991 56.3963 84.1763 62.4802 84.1763 68.9219V107.572C84.1763 114.014 83.6991 120.098 81.0747 127.016H100.281C97.8947 120.098 97.0597 114.014 97.0597 107.572V94.0922H105.291C107.796 94.0922 109.585 95.1658 111.136 100.772L119.248 127.016H136.068C133.324 123.08 131.415 119.859 130.103 115.326ZM101.712 90.1556H97.0597V68.9219C97.0597 63.7924 97.179 58.9014 97.4175 53.6527C99.0876 53.5334 100.758 53.5334 102.428 53.5334C111.971 53.5334 117.22 60.2136 117.22 72.9778C117.22 86.5769 110.897 90.1556 101.712 90.1556Z" fill="#111111"/>
<path d="M287.927 87.0541C296.158 84.5489 303.196 77.988 303.196 67.4904C303.196 54.4877 291.983 49.4775 279.935 49.4775H254.645C257.15 56.3963 257.747 61.8837 257.747 68.9219V107.572C257.747 114.491 257.15 120.098 254.645 127.016H280.531C296.516 127.016 305.94 118.308 305.94 105.425C305.94 93.8536 297.47 88.9627 287.927 87.0541ZM274.089 53.6527C284.706 53.6527 289.836 59.2593 289.836 70.3534C289.836 79.8966 285.78 85.7419 277.191 85.7419H270.391V68.9219C270.391 63.7924 270.511 59.0207 270.749 53.7719C271.942 53.6527 273.016 53.6527 274.089 53.6527ZM277.668 122.603C275.521 122.603 273.135 122.483 270.869 121.887C270.511 117.354 270.391 112.105 270.391 107.572V90.0363C272.658 89.7977 274.805 89.6784 275.64 89.6784C285.422 89.6784 292.222 95.8816 292.222 107.811C292.222 117.354 287.927 122.603 277.668 122.603Z" fill="#111111"/>
</svg>
