<svg width="132" height="66" viewBox="0 0 132 66" fill="none" xmlns="http://www.w3.org/2000/svg">
<path d="M15.1856 22.7009L13.6338 17.7129C13.1535 16.1242 12.6731 15.3852 11.5278 15.1266C13.523 14.129 15.4073 12.0229 15.4073 8.91931C15.4073 3.5249 11.2322 2.30562 7.64823 2.30562H0C0.812855 4.4486 0.960647 6.33295 0.960647 8.32814V20.2993C0.960647 22.2945 0.812855 24.1788 0 26.3218H5.94862C5.20966 24.1788 4.95103 22.2945 4.95103 20.2993V16.1242H7.50044C8.27634 16.1242 8.83056 16.4567 9.31088 18.1932L11.8233 26.3218H17.033C16.1832 25.1025 15.592 24.1049 15.1856 22.7009ZM6.392 14.9049H4.95103V8.32814C4.95103 6.73938 4.98797 5.22451 5.06187 3.5988C5.57914 3.56185 6.09641 3.56185 6.61368 3.56185C9.56952 3.56185 11.1952 5.63094 11.1952 9.58437C11.1952 13.7964 9.23699 14.9049 6.392 14.9049Z" fill="#111111"/>
<path d="M24.3196 26.7652C28.9011 26.7652 31.9678 22.9226 31.9678 17.0479C31.9678 11.5057 29.1228 7.40444 24.6152 7.40444C20.0706 7.40444 16.967 11.1731 16.967 17.0848C16.967 22.627 19.775 26.7652 24.3196 26.7652ZM24.763 25.3242C22.2505 25.3242 21.1421 20.7796 21.1421 15.9025C21.1421 11.3579 22.1397 8.80846 24.1349 8.80846C26.6843 8.80846 27.7558 13.427 27.7558 18.2671C27.7558 22.9226 26.6843 25.3242 24.763 25.3242Z" fill="#111111"/>
<path d="M47.5154 20.2993V12.651C47.5154 9.0671 45.9267 7.47833 43.4512 7.47833C41.4929 7.47833 39.5716 8.43898 38.1676 10.8775C38.1306 9.76911 37.872 8.2173 37.4656 7.40444C36.2094 8.0695 34.8423 8.69762 33.4752 9.28879C34.2881 10.9884 34.325 12.9466 34.325 15.2005V20.7427C34.325 22.7378 34.2511 24.2897 33.4752 26.3218H39.0544C38.2415 24.2897 38.1676 22.7378 38.1676 20.7427V11.949C39.3499 10.5081 40.4953 10.1386 41.3821 10.1386C42.9708 10.1386 43.6728 11.1731 43.6728 13.3531V20.4101C43.6728 22.5531 43.7837 24.6591 44.1532 26.3218H48.513C47.7371 24.1788 47.5154 22.5162 47.5154 20.2993Z" fill="#111111"/>
<path d="M63.399 14.3137C63.399 10.6559 61.5886 7.40444 57.1918 7.40444C52.0191 7.40444 49.5435 12.0599 49.5435 17.2695C49.5435 22.9965 52.6841 26.7652 57.2287 26.7652C60.8866 26.7652 62.8448 24.3635 63.2143 21.925C61.995 22.8117 60.9235 23.2551 59.2609 23.2551C55.2705 23.2551 53.7187 20.8165 53.4231 16.974H63.399V14.3137ZM58.0785 15.9394H53.3861V15.4591C53.3861 11.0992 54.6054 8.77151 56.6376 8.77151C58.3002 8.77151 59.4456 10.4342 59.4456 14.2768C59.4456 15.7547 59.2239 15.9394 58.0785 15.9394Z" fill="#111111"/>
<path d="M67.9234 5.74178C69.5122 5.74178 70.6945 4.55945 70.6945 3.04458C70.6945 1.52972 69.5122 0.347382 67.9234 0.347382C66.2977 0.347382 65.1893 1.52972 65.1893 3.04458C65.1893 4.55945 66.2977 5.74178 67.9234 5.74178ZM65.2632 26.3218H70.8054C70.0295 24.1788 69.9556 22.8117 69.9556 20.8165V7.44139C68.4038 8.18035 66.8519 8.73457 65.2632 9.25184C66.076 10.9514 66.113 13.1683 66.113 15.3113V20.8165C66.113 22.8117 66.0391 24.1788 65.2632 26.3218Z" fill="#111111"/>
<path d="M72.4571 26.3218H78.0731C77.2972 24.2897 77.1864 22.7378 77.1864 20.7427V0.0887451C75.5976 0.864653 74.1197 1.45582 72.494 1.8992C73.2699 3.5988 73.3438 5.77873 73.3438 8.03255V20.7427C73.3438 22.7378 73.233 24.2897 72.4571 26.3218Z" fill="#111111"/>
<path d="M79.62 26.3218H85.2361C84.4602 24.2897 84.3494 22.7378 84.3494 20.7427V0.0887451C82.7606 0.864653 81.2827 1.45582 79.657 1.8992C80.4329 3.5988 80.5068 5.77873 80.5068 8.03255V20.7427C80.5068 22.7378 80.396 24.2897 79.62 26.3218Z" fill="#111111"/>
<path d="M101.121 26.3218C100.235 24.2158 100.161 22.8856 100.161 20.1515V14.5354C100.161 11.3209 99.4218 7.44139 94.0644 7.44139C89.372 7.44139 87.4507 10.3603 87.4507 13.2792V14.3876L91.8106 14.6093C91.2563 13.3161 91.0347 12.1338 91.0347 11.247C91.0347 9.58437 91.8845 8.73457 93.2885 8.73457C95.8748 8.73457 96.2813 11.5796 96.2813 14.092V15.0157C96.2813 15.6069 94.9511 16.3458 92.3648 17.3434C90.111 18.2671 86.6748 19.4125 86.6748 22.6639C86.6748 25.0286 88.4114 26.6174 90.9977 26.6174C93.0668 26.6174 95.062 25.6198 96.3182 23.8093C96.3921 24.6961 96.6507 25.6937 96.9833 26.3218H101.121ZM93.3254 23.9571C91.478 23.9571 90.5543 22.7748 90.5543 21.1491C90.5543 19.043 91.6258 18.0824 94.9881 18.0824C96.1704 18.0824 96.2813 18.2302 96.2813 18.9322V22.9226C95.4315 23.5507 94.4339 23.9571 93.3254 23.9571Z" fill="#111111"/>
<path d="M10.3085 45.6322C12.8579 44.8563 15.0378 42.8241 15.0378 39.5727C15.0378 35.5454 11.5647 33.9936 7.83297 33.9936H0C0.775907 36.1366 0.960647 37.8362 0.960647 40.0161V51.9872C0.960647 54.1302 0.775907 55.8668 0 58.0097H8.01771C12.9687 58.0097 15.8876 55.3125 15.8876 51.3222C15.8876 47.7382 13.2643 46.2234 10.3085 45.6322ZM6.02252 35.2868C9.31088 35.2868 10.8996 37.0233 10.8996 40.4595C10.8996 43.4153 9.64342 45.2258 6.98316 45.2258H4.87713V40.0161C4.87713 38.4273 4.91408 36.9494 4.98797 35.3237C5.35745 35.2868 5.68998 35.2868 6.02252 35.2868ZM7.13096 56.6427C6.46589 56.6427 5.72693 56.6057 5.02492 56.421C4.91408 55.017 4.87713 53.3913 4.87713 51.9872V46.5559C5.57914 46.482 6.2442 46.445 6.50284 46.445C9.53257 46.445 11.6386 48.3663 11.6386 52.0611C11.6386 55.017 10.3085 56.6427 7.13096 56.6427Z" fill="#111111"/>
<path d="M32.0752 58.0097C31.2623 55.8298 31.1515 54.4997 31.1515 52.0981V39.1663C29.6366 39.8683 28.1217 40.4595 26.5699 40.9767C27.2719 42.6394 27.3089 44.8932 27.3089 46.9993V54.2041C26.2374 55.3495 25.2398 55.6451 24.39 55.6451C22.0623 55.6451 21.9145 53.6868 21.9145 52.4306V39.1663C20.3627 39.8314 18.7739 40.4225 17.1851 40.9767C17.998 42.8241 18.0349 44.8563 18.0349 46.9993V53.1326C18.0349 56.7166 19.5498 58.3053 22.247 58.3053C24.1683 58.3053 26.0157 57.4186 27.3828 55.3495C27.4567 56.2732 27.7153 57.4186 28.0478 58.0097H32.0752Z" fill="#111111"/>
<path d="M57.1244 51.9872V44.339C57.1244 40.7551 55.5357 39.1663 53.0232 39.1663C51.028 39.1663 49.0328 40.1639 47.6288 42.7872C47.2224 40.2747 45.7445 39.1663 43.6754 39.1663C41.7171 39.1663 39.7958 40.1269 38.3918 42.5655C38.3549 41.4571 38.0962 39.9053 37.6898 39.0924C36.4336 39.7575 35.0665 40.3856 33.6994 40.9767C34.5123 42.6763 34.5492 44.6346 34.5492 46.8884V52.4306C34.5492 54.4258 34.4753 55.9776 33.6994 58.0097H39.2786C38.4657 55.9776 38.3918 54.4258 38.3918 52.4306V43.637C39.5741 42.196 40.7195 41.8265 41.6063 41.8265C43.195 41.8265 43.8971 42.8611 43.8971 45.041V58.0097H48.7372C47.9613 55.8668 47.7396 53.9824 47.7396 51.9872V44.339C47.7396 44.1173 47.7396 43.8956 47.7027 43.6739C48.922 42.196 50.0674 41.8265 50.9541 41.8265C52.5798 41.8265 53.2818 42.8611 53.2818 45.041V52.0981C53.2818 54.0194 53.3927 56.3471 53.7622 58.0097H58.0851C57.3461 55.8668 57.1244 53.9824 57.1244 51.9872Z" fill="#111111"/>
<path d="M73.8509 58.0097C72.9641 55.9037 72.8902 54.5736 72.8902 51.8394V46.2234C72.8902 43.0089 72.1513 39.1293 66.7938 39.1293C62.1014 39.1293 60.1801 42.0482 60.1801 44.9671V46.0756L64.54 46.2972C63.9858 45.0041 63.7641 43.8217 63.7641 42.935C63.7641 41.2723 64.6139 40.4225 66.0179 40.4225C68.6043 40.4225 69.0107 43.2675 69.0107 45.78V46.7037C69.0107 47.2948 67.6806 48.0338 65.0942 49.0314C62.8404 49.9551 59.4042 51.1005 59.4042 54.3519C59.4042 56.7166 61.1408 58.3053 63.7271 58.3053C65.7962 58.3053 67.7914 57.3077 69.0476 55.4973C69.1215 56.384 69.3802 57.3816 69.7127 58.0097H73.8509ZM66.0548 55.6451C64.2075 55.6451 63.2838 54.4627 63.2838 52.837C63.2838 50.731 64.3552 49.7704 67.7175 49.7704C68.8998 49.7704 69.0107 49.9181 69.0107 50.6202V54.6105C68.1609 55.2386 67.1633 55.6451 66.0548 55.6451Z" fill="#111111"/>
<path d="M89.4519 51.9872V44.339C89.4519 40.7551 87.8631 39.1663 85.3876 39.1663C83.4293 39.1663 81.508 40.1269 80.104 42.5655C80.0671 41.4571 79.8084 39.9053 79.402 39.0924C78.1458 39.7575 76.7787 40.3856 75.4116 40.9767C76.2245 42.6763 76.2614 44.6346 76.2614 46.8884V52.4306C76.2614 54.4258 76.1875 55.9776 75.4116 58.0097H80.9908C80.1779 55.9776 80.104 54.4258 80.104 52.4306V43.637C81.2864 42.196 82.4318 41.8265 83.3185 41.8265C84.9073 41.8265 85.6093 42.8611 85.6093 45.041V52.0981C85.6093 54.2411 85.7201 56.3471 86.0896 58.0097H90.4495C89.6735 55.8668 89.4519 54.2041 89.4519 51.9872Z" fill="#111111"/>
<path d="M91.7712 58.0097H97.3873C96.6114 55.9776 96.5005 54.4258 96.5005 52.4306V31.7767C94.9118 32.5526 93.4339 33.1438 91.8082 33.5872C92.5841 35.2868 92.658 37.4667 92.658 39.7205V52.4306C92.658 54.4258 92.5471 55.9776 91.7712 58.0097Z" fill="#111111"/>
<path d="M113.273 58.0097C112.386 55.9037 112.312 54.5736 112.312 51.8394V46.2234C112.312 43.0089 111.573 39.1293 106.216 39.1293C101.523 39.1293 99.6019 42.0482 99.6019 44.9671V46.0756L103.962 46.2972C103.407 45.0041 103.186 43.8217 103.186 42.935C103.186 41.2723 104.036 40.4225 105.44 40.4225C108.026 40.4225 108.432 43.2675 108.432 45.78V46.7037C108.432 47.2948 107.102 48.0338 104.516 49.0314C102.262 49.9551 98.826 51.1005 98.826 54.3519C98.826 56.7166 100.563 58.3053 103.149 58.3053C105.218 58.3053 107.213 57.3077 108.469 55.4973C108.543 56.384 108.802 57.3816 109.134 58.0097H113.273ZM105.477 55.6451C103.629 55.6451 102.705 54.4627 102.705 52.837C102.705 50.731 103.777 49.7704 107.139 49.7704C108.322 49.7704 108.432 49.9181 108.432 50.6202V54.6105C107.583 55.2386 106.585 55.6451 105.477 55.6451Z" fill="#111111"/>
<path d="M129.871 35.5823C128.098 35.5823 126.509 36.4321 125.585 40.09C124.551 39.4988 123.294 39.1663 121.927 39.1663C117.789 39.1663 114.686 42.1591 114.686 46.0386C114.686 48.588 116.053 50.5463 118.048 51.5808C116.348 52.874 114.944 54.4997 114.944 56.0885C114.944 58.0097 116.681 58.527 119.378 58.527H123.516C125.992 58.527 126.989 59.0812 126.989 60.5592C126.989 61.9632 125.659 62.9977 123.221 62.9977C120.856 62.9977 118.38 62.2588 115.979 59.5985L113.762 63.2933C116.09 64.8451 118.417 65.3624 120.93 65.3624C125.807 65.3624 129.317 62.1849 129.317 58.3792C129.317 55.0539 126.62 54.9431 123.923 54.9431H120.154C118.824 54.9431 117.752 54.9431 117.752 54.0933C117.752 53.4652 118.196 52.8001 119.23 52.0242C119.932 52.2459 120.708 52.3567 121.484 52.3567C125.659 52.3567 128.689 49.327 128.689 45.4474C128.689 43.4892 127.802 41.7526 126.361 40.6442C126.805 39.5358 127.47 39.1293 128.209 39.1293C129.058 39.1293 129.908 39.6836 130.425 40.6073L131.054 35.804C130.758 35.6562 130.388 35.5823 129.871 35.5823ZM122.001 51.0266C119.304 51.0266 118.639 47.4426 118.639 44.8193C118.639 41.8265 119.747 40.5334 121.336 40.5334C123.886 40.5334 124.735 43.8956 124.735 46.7406C124.735 49.4378 123.812 51.0266 122.001 51.0266Z" fill="#111111"/>
<path d="M117.064 5.10028L118.028 16.7633L126.956 9.19771L119.391 18.1261L131.054 19.0898L119.391 20.0534L126.956 28.9818L118.028 21.4162L117.064 33.0793L116.101 21.4162L107.172 28.9818L114.738 20.0534L103.075 19.0898L114.738 18.1261L107.172 9.19771L116.101 16.7633L117.064 5.10028Z" fill="#ECB72D"/>
</svg>
